<svg width="40" height="40" viewBox="0 0 40 40" fill="none" xmlns="http://www.w3.org/2000/svg">
<path d="M30.0293 37.0773C29.7058 37.0371 29.4115 37.267 29.3713 37.5905C29.2847 38.291 28.6864 38.8192 27.9788 38.8192H4.84418C4.07043 38.8192 3.44067 38.1903 3.44067 37.4157V13.5152L6.65153 24.1009C6.72864 24.3559 6.96325 24.5205 7.2159 24.5205C7.27254 24.5205 7.33082 24.5118 7.38747 24.4945C7.69997 24.4001 7.87629 24.0702 7.78106 23.7585L4.83551 14.0466C5.237 15.0455 6.21622 15.7531 7.35832 15.7531C8.85707 15.7531 10.0772 14.533 10.0772 13.0343C10.0772 11.9855 10.0772 7.06383 10.0772 6.25289C14.011 5.05898 18.7353 3.62672 23.1125 2.29898C23.4243 2.20375 23.6006 1.87469 23.5061 1.56219C23.4109 1.25047 23.0811 1.07414 22.7693 1.16859L11.8475 4.48172C11.2169 3.24586 9.93153 2.39812 8.4509 2.39812C6.34918 2.39812 4.6395 4.10781 4.6395 6.20953V6.66844L4.11208 6.8282C3.01481 7.16047 2.27801 8.15391 2.27801 9.3L2.25989 9.99898V37.4158C2.25989 38.8413 3.41934 40 4.84411 40H27.9787C29.2814 40 30.3835 39.0263 30.5432 37.7353C30.5836 37.4118 30.3529 37.1166 30.0293 37.0773ZM5.82036 6.20961C5.82036 4.7589 7.00028 3.5789 8.45106 3.5789C9.39723 3.5789 10.2285 4.08109 10.6913 4.83289L9.6727 5.14148C8.73653 4.06461 6.95809 4.59976 6.78145 6.01836C6.76067 6.18117 6.76793 11.8641 6.76809 12.0819C6.76809 12.4077 7.03254 12.6723 7.35848 12.6723C7.68442 12.6723 7.94887 12.4078 7.94887 12.0819C7.94887 11.6471 7.94887 6.48273 7.94887 6.22461C7.94887 5.96328 8.16137 5.7507 8.42278 5.7507C8.68418 5.7507 8.89668 5.9632 8.89668 6.22461C8.89668 7.03375 8.89668 12.1341 8.89668 13.0343C8.89668 13.882 8.20637 14.5724 7.35856 14.5724C6.51075 14.5724 5.82043 13.8821 5.82043 13.0343C5.82036 11.5771 5.82036 7.68422 5.82036 6.20961ZM3.86973 8.31211C3.87051 8.31055 3.87129 8.30976 3.87208 8.31055C3.9259 8.27375 4.1852 8.00422 4.63958 7.93976C4.65872 13.2452 4.59637 13.1051 4.69622 13.5877L3.5195 9.70851C3.36379 9.18961 3.51864 8.66539 3.86973 8.31211Z" fill="#B3B3B3"/>
<path d="M29.4736 1.83532C29.0471 0.429693 27.5826 -0.294995 26.251 0.113052L25.0293 0.483052C24.7176 0.578287 24.5413 0.907349 24.6357 1.21985C24.7302 1.53157 25.06 1.7079 25.3718 1.61344C26.5295 1.27883 26.6566 1.18211 27.002 1.18211C27.6136 1.18211 28.1662 1.59141 28.3441 2.17868L30.0404 7.77227L30.5631 9.49461L36.4967 29.0571C36.7286 29.8152 36.2793 30.59 35.5615 30.8077C11.913 37.9809 13.3316 37.5836 13.0149 37.5836C12.4025 37.5836 11.8507 37.1743 11.6728 36.587L8.46668 26.0178C8.37222 25.7061 8.04238 25.5298 7.73066 25.6242C7.41816 25.7195 7.24261 26.0493 7.33707 26.361L10.5424 36.9302C10.8753 38.0275 11.8687 38.7643 13.0149 38.7643C13.2683 38.7643 13.5211 38.7265 13.7658 38.6525L29.3823 33.9154V35.3023C29.3823 35.6282 29.646 35.8927 29.9727 35.8927C30.2986 35.8927 30.5631 35.6283 30.5631 35.3023V33.5572L35.9039 31.9372C37.0012 31.6042 37.7388 30.6109 37.7388 29.4655C37.7388 28.747 38.03 30.1764 29.4736 1.83532Z" fill="#B3B3B3"/>
<path d="M20.1588 14.358C19.6598 12.7126 18.3398 12.634 17.5512 12.5872C16.8391 12.535 16.3441 12.5677 16.183 12.0362C16.0282 11.5259 16.3876 11.2621 16.8989 11.107C17.6468 10.8801 17.9069 11.1757 18.2663 11.0666C18.6889 10.9384 18.792 10.4367 18.7016 10.139C18.5094 9.50509 17.5427 9.5704 17.0249 9.65477L16.953 9.41743C16.8345 9.02688 16.4205 8.80555 16.0299 8.92399C15.6394 9.04243 15.4181 9.45649 15.5366 9.84712L15.6355 10.1731C14.8111 10.7152 14.5196 11.5384 14.8145 12.5105C15.2392 13.9108 16.3553 13.9834 17.2521 14.0416C18.1466 14.0998 18.5856 14.1576 18.7903 14.8324C18.9663 15.4127 18.7465 15.7745 18.0985 15.971C17.0545 16.2877 16.8977 15.5174 16.3283 15.6901C15.9534 15.8038 15.7815 16.2836 15.8837 16.6206C16.0513 17.1734 16.9056 17.5229 17.8412 17.4452L17.9126 17.6806C18.031 18.0711 18.4451 18.2924 18.8357 18.1739C19.2263 18.0555 19.4476 17.6414 19.3291 17.2508L19.253 16.9999C20.1736 16.4471 20.5038 15.4952 20.1588 14.358Z" fill="#B3B3B3"/>
<path d="M29.2298 17.4563C29.1352 17.1443 28.8052 16.9682 28.4934 17.0627L11.6639 22.1677C11.3519 22.2623 11.1757 22.592 11.2703 22.904C11.3645 23.2145 11.693 23.3926 12.0066 23.2976L28.8362 18.1927C29.1482 18.0979 29.3244 17.7683 29.2298 17.4563Z" fill="#B3B3B3"/>
<path d="M30.2129 20.6957C30.1176 20.384 29.7877 20.2077 29.4761 20.3021L29.3824 20.3305L12.6466 25.4069C12.3349 25.5021 12.1586 25.8312 12.253 26.1437C12.348 26.4567 12.6794 26.6309 12.9898 26.5373C12.999 26.5345 29.7853 21.4428 29.8193 21.4325C30.131 21.3372 30.3073 21.0074 30.2129 20.6957Z" fill="#B3B3B3"/>
<path d="M31.1952 23.9348C31.1022 23.6292 30.7793 23.4466 30.4592 23.5413L29.3824 23.8679L13.6289 28.6467C12.982 28.8427 13.1252 29.8023 13.8005 29.8023C13.8571 29.8023 13.9146 29.7936 13.972 29.7763C17.7184 28.64 26.8242 25.878 30.8015 24.6716C31.1133 24.5772 31.2896 24.2473 31.1952 23.9348Z" fill="#B3B3B3"/>
<path d="M32.1776 27.1748C32.0832 26.8631 31.7533 26.6868 31.4416 26.7812L30.5632 27.0481C15.6833 31.5612 14.6635 31.8704 14.6137 31.8855C14.6136 31.8855 14.6135 31.8856 14.6133 31.8856C14.6134 31.8856 14.6135 31.8855 14.6136 31.8855C14.613 31.8857 14.6126 31.8859 14.6123 31.8859C14.6123 31.8859 14.6124 31.8859 14.6125 31.8859C14.6123 31.8859 14.6123 31.8859 14.6122 31.8859C13.964 32.082 14.1089 33.0416 14.783 33.0416C14.9159 33.0416 13.9268 33.3307 31.784 27.9109C32.0965 27.8163 32.2729 27.4865 32.1776 27.1748Z" fill="#B3B3B3"/>
<path d="M14.6135 31.8859H14.6138C14.6153 31.8853 14.6162 31.885 14.6164 31.885C14.616 31.8851 14.6148 31.8855 14.6135 31.8859Z" fill="#B3B3B3"/>
</svg>
