<svg width="263" height="385" viewBox="0 0 263 385" fill="none" xmlns="http://www.w3.org/2000/svg">
<path d="M49.263 181.531C49.263 181.531 45.327 223.354 31.5574 258.302C17.7869 293.25 0 316.549 0 316.549C0 316.549 28.6885 308.719 52.786 323.042C76.8844 337.365 100.17 347.104 137.298 348.823C174.425 350.542 187.622 332.208 211.147 325.333C234.671 318.458 259.917 321.323 259.917 321.323C259.917 321.323 229.737 262.482 214.658 216.479C199.579 170.476 202.338 129.577 202.338 129.577L71.0158 130.805L49.263 181.531Z" fill="#002D2E"/>
<path d="M148.033 287.341V350.625H170.119L180.738 254.375H148.033V287.341Z" fill="#F9C916"/>
<path d="M199.672 123.75C199.672 123.75 199.645 129.54 198.107 157.767C196.572 185.992 175.574 250.392 175.574 250.392C175.574 250.392 151.41 249.165 127.394 250.25C103.381 251.336 95.5329 250.392 95.5329 250.392C95.5329 250.392 95.6871 241.188 88.4927 221.642C81.2971 202.094 77.4402 178.69 75.7378 158.125C74.4158 142.156 74.8772 130.625 74.8772 130.625L108.443 106.563L167.828 108.281L199.672 123.75Z" fill="#F9C916"/>
<path d="M146.312 333.438H176.981L170.962 360.689C170.962 360.689 181.353 370.682 183.073 373.18C184.793 375.678 185.223 382.718 178.989 384.535C172.754 386.352 165.23 382.491 160.93 379.085C156.631 375.678 148.891 368.184 148.031 365.459C147.171 362.733 146.312 333.438 146.312 333.438Z" fill="#004547"/>
<path d="M127.377 287.341V350.625H104.128L92.9508 254.375H127.377V287.341Z" fill="#F9C916"/>
<path d="M66.9009 135.341L71.016 130.806L66.9009 135.341Z" fill="#E8E8E7"/>
<path d="M75.3282 137.94L75 131.463L75.3282 137.94Z" fill="#1C2C42"/>
<path d="M138.691 165.391C138.574 164.64 138.416 163.89 138.218 163.15C136.407 162.669 137.233 165.391 135.372 165.391C133.963 165.391 132.294 158.821 130.82 158.125C122.647 154.268 106.721 148.672 99.8362 146.094C92.6649 142.55 74.3883 137.299 67.1312 134.922L71.4345 130.625C77.147 131.654 91.5775 134.766 100.983 138.563C114.466 144.006 138.565 160.334 138.565 160.334C138.565 160.334 144.447 154.774 153.448 148.467C162.45 142.161 168.689 146.161 168.689 146.161C165.719 148.503 147.255 156.459 145.451 158.125C144.941 158.091 143.376 165 142.869 165C141.008 165 140.972 162.669 139.162 163.15C138.964 163.89 138.806 164.64 138.691 165.391ZM168.689 146.161L154.942 147.436C161.582 142.903 169.723 138.125 178.373 134.839C190.532 130.217 196.691 129.144 199.672 129.082C194.83 131.42 184.127 138.393 171.821 144.523C169.95 145.455 170.41 145.235 168.689 146.161Z" fill="#003132"/>
<path d="M80.9016 254.375H194.508V237.187H80.9016V254.375Z" fill="#F8A420"/>
<path d="M136.844 254.375H92.9508L97.7021 256.394C111.316 262.177 121.913 273.262 126.99 287.031H136.844H146.699C151.777 273.262 162.374 262.177 175.988 256.394L180.738 254.375H136.844Z" fill="#004547"/>
<path d="M129.098 333.438H97.0344L103.328 360.689C103.328 360.689 92.4639 370.682 90.6659 373.18C88.8678 375.678 88.4183 382.718 94.9362 384.535C101.454 386.352 109.32 382.491 113.815 379.085C118.31 375.678 126.401 368.184 127.3 365.459C128.199 362.733 129.098 333.438 129.098 333.438Z" fill="#004547"/>
<path d="M65.4097 124.609L16.4742 190.936C8.92292 199.262 10.0516 212.24 18.9281 219.14L52.5954 245.315L70.995 223.169L48.4826 201.297L76.8613 168.173L74.8769 134.062L65.4097 124.609Z" fill="#E6B586"/>
<path d="M48.9696 200.731L23.5249 229.083L61.106 252.287C61.106 252.287 63.9748 256.87 70.5732 260.88C77.1715 264.891 86.0512 262.503 91.0798 254.099C96.106 245.698 99.248 231.948 91.0798 226.505C82.9093 221.063 70.9955 222.972 70.9955 222.972L48.9696 200.731Z" fill="#004547"/>
<path d="M204.836 120.312L257.994 190.936C265.545 199.262 264.416 212.24 255.541 219.14L221.872 245.315L203.472 223.169L225.985 201.297L197.606 168.173L199.711 126.68" fill="#E6B586"/>
<path d="M225.487 200.715L250.944 229.083L213.362 252.287C213.362 252.287 210.493 256.87 203.894 260.88C197.296 264.891 188.416 262.503 183.39 254.099C178.362 245.698 175.22 231.948 183.39 226.505C191.558 221.063 202.974 222.88 202.974 222.88L225.487 200.715Z" fill="#004547"/>
<path d="M138.565 161.562C138.565 161.562 113.223 103.943 106.721 107.422C100.219 110.903 91.947 115.456 82.7896 117.365C73.6345 119.274 66.2604 118.893 59.8089 129.586C53.3598 140.282 46.4753 150.39 46.4753 150.39L74.877 137.5C74.877 137.5 87.4991 133.12 100.983 138.563C114.466 144.005 138.565 160.334 138.565 160.334C138.565 160.334 156.905 142.997 178.373 134.839C199.839 126.68 211.721 129.765 211.721 129.765C211.721 129.765 206.725 120.312 202.254 117.734C197.783 115.156 187.909 116.792 180.163 111.636C172.417 106.479 169.001 107.868 165.246 108.155C161.493 108.441 167.828 107.876 167.828 107.876L138.565 161.562Z" fill="#004547"/>
<path d="M138.76 165.886H138.62C138.64 165.721 138.663 165.556 138.691 165.391C138.716 165.556 138.739 165.721 138.76 165.886Z" fill="#C23D21"/>
<path d="M145.982 159.178C145.982 163.34 142.604 166.714 138.436 166.714C134.27 166.714 130.892 163.34 130.892 159.178C130.892 155.017 134.27 151.644 138.436 151.644C142.604 151.644 145.982 155.017 145.982 159.178Z" fill="#003132"/>
<path d="M152.982 257.812H122.43C119.459 257.812 117.049 255.449 117.049 252.531V237.314C117.049 234.397 119.459 232.031 122.43 232.031H152.982C155.953 232.031 158.361 234.397 158.361 237.314V252.531C158.361 255.449 155.953 257.812 152.982 257.812Z" fill="#FAE308"/>
<path d="M152.982 257.812H122.43C122.198 257.812 121.97 257.799 121.746 257.771C119.098 257.44 117.049 255.226 117.049 252.54V249.219C117.049 252.13 119.459 254.489 122.43 254.489H152.982C155.953 254.489 158.361 252.13 158.361 249.219V252.534V252.542C158.361 255.226 156.315 257.44 153.666 257.771C153.442 257.799 153.214 257.812 152.982 257.812Z" fill="#E0CB0E"/>
<path d="M48.969 200.731C47.8467 195.928 48.8106 190.875 51.6244 186.818L76.0234 151.643L76.8611 168.173L48.969 200.731Z" fill="#CB8D5B"/>
<path d="M225.487 200.715L205.308 177.161L225.487 200.715Z" fill="#E8E8E7"/>
<path d="M205.308 177.161L197.727 168.316L205.308 177.161Z" fill="#1C2C42"/>
<path d="M225.5 200.729L225.487 200.715L205.308 177.161L197.728 168.316L197.606 168.173L198.446 151.644L222.845 186.818C225.656 190.875 226.62 195.926 225.5 200.729Z" fill="#CB8D5B"/>
<path d="M225.5 200.731L225.487 200.715L225.5 200.729C225.5 200.729 225.5 200.729 225.5 200.731Z" fill="#1D3D64"/>
<path d="M18.9282 219.14C18.9112 219.126 18.8933 219.112 18.877 219.101C18.8933 219.112 18.9112 219.126 18.9282 219.14ZM18.8591 219.087C18.8483 219.078 18.8366 219.069 18.8261 219.06C18.8366 219.069 18.8474 219.078 18.8591 219.087ZM18.8045 219.044C18.7955 219.037 18.7848 219.028 18.7749 219.021C18.7848 219.028 18.7946 219.037 18.8045 219.044ZM18.7506 219C18.7416 218.993 18.7336 218.986 18.7246 218.98C18.7327 218.986 18.7425 218.993 18.7506 219ZM18.6987 218.959C18.6907 218.952 18.6826 218.947 18.6744 218.941C18.6826 218.947 18.6907 218.952 18.6987 218.959ZM18.6466 218.918C18.6395 218.911 18.6324 218.906 18.6253 218.899C18.6314 218.906 18.6395 218.911 18.6466 218.918ZM18.5947 218.876C18.5876 218.87 18.5821 218.865 18.575 218.86C18.5821 218.865 18.5883 218.87 18.5947 218.876ZM18.5435 218.833C18.5373 218.828 18.5318 218.824 18.5257 218.819C18.5318 218.824 18.5383 218.828 18.5435 218.833ZM18.4933 218.792C18.488 218.787 18.4818 218.782 18.4763 218.778C18.4818 218.782 18.4871 218.787 18.4933 218.792ZM18.4433 218.75C18.4377 218.746 18.4325 218.741 18.427 218.739C18.4325 218.741 18.4377 218.746 18.4433 218.75ZM18.3921 218.709C18.3875 218.705 18.384 218.702 18.3785 218.698C18.3831 218.7 18.3875 218.705 18.3921 218.709ZM18.3418 218.666C18.3375 218.663 18.3347 218.661 18.331 218.656C18.3347 218.661 18.3384 218.663 18.3418 218.666ZM18.2925 218.624C18.2899 218.622 18.2854 218.62 18.2826 218.615C18.2854 218.62 18.289 218.622 18.2925 218.624ZM18.2424 218.583C18.2397 218.581 18.2378 218.579 18.2351 218.576C18.2369 218.579 18.2406 218.581 18.2424 218.583ZM18.1931 218.54C18.1913 218.537 18.1894 218.537 18.1876 218.535C18.1894 218.537 18.1913 218.54 18.1931 218.54ZM18.1438 218.498C18.1419 218.496 18.1419 218.496 18.141 218.496C18.141 218.496 18.1428 218.496 18.1438 218.498Z" fill="#E8E8E7"/>
<path d="M26.8914 225.332L18.9286 219.14C18.9116 219.126 18.8937 219.113 18.8774 219.101C18.8712 219.097 18.8657 219.092 18.8595 219.087C18.8478 219.078 18.837 219.069 18.8265 219.06C18.8191 219.055 18.812 219.048 18.8049 219.044C18.795 219.037 18.7852 219.028 18.7753 219.021C18.7673 219.014 18.7592 219.007 18.751 219C18.7429 218.993 18.7331 218.987 18.725 218.98C18.717 218.973 18.7071 218.966 18.6991 218.959C18.6911 218.952 18.683 218.948 18.6748 218.941C18.6658 218.932 18.6559 218.925 18.647 218.918C18.6399 218.911 18.6318 218.906 18.6256 218.9C18.6158 218.893 18.605 218.883 18.5951 218.877C18.5887 218.87 18.5825 218.865 18.5754 218.861C18.5655 218.851 18.5538 218.842 18.5439 218.833C18.5387 218.829 18.5322 218.824 18.526 218.819C18.5153 218.81 18.5045 218.801 18.4937 218.792C18.4875 218.787 18.4822 218.783 18.4767 218.778C18.465 218.769 18.4542 218.76 18.4437 218.751C18.4381 218.746 18.4329 218.741 18.4273 218.739C18.4159 218.728 18.4042 218.718 18.3925 218.709C18.3879 218.705 18.3835 218.7 18.3789 218.698C18.3674 218.689 18.3539 218.677 18.3422 218.666C18.3388 218.664 18.3351 218.661 18.3314 218.657C18.319 218.647 18.3055 218.636 18.2929 218.625C18.2894 218.622 18.2857 218.62 18.283 218.615C18.2697 218.604 18.2561 218.595 18.2428 218.583C18.241 218.581 18.2373 218.579 18.2355 218.576C18.2212 218.565 18.2068 218.551 18.1935 218.54C18.1916 218.54 18.1898 218.537 18.188 218.535C18.1737 218.524 18.1584 218.51 18.1441 218.499C18.1432 218.496 18.1414 218.496 18.1414 218.496C10.2458 211.674 9.23715 199.785 15.8454 191.709C16.3 194.12 17.1428 197.108 18.6479 200.731C23.525 212.469 33.002 218.524 33.002 218.524L28.6845 223.334H28.6836L26.8914 225.332Z" fill="#CB8D5B"/>
<path d="M23.5249 229.084L26.8913 225.332L23.5249 229.084Z" fill="#E8E8E7"/>
<path d="M71.1168 261.192C71.1145 261.192 71.1122 261.19 71.1122 261.19C71.1122 261.19 71.1145 261.192 71.1168 261.192ZM71.0572 261.16C70.8942 261.071 70.7335 260.977 70.5729 260.88C63.9745 256.87 61.1057 252.287 61.1057 252.287L38.3127 238.214L61.1057 252.287C61.1057 252.287 63.9745 256.87 70.5729 260.88C70.7335 260.977 70.8942 261.071 71.0572 261.16Z" fill="#1C2C42"/>
<path d="M27.8286 224.287L28.684 223.334H28.6831L27.8286 224.287Z" fill="#F29612"/>
<path d="M77.3253 262.778C75.1794 262.778 73.0588 262.253 71.1171 261.192C71.1148 261.192 71.1125 261.19 71.1125 261.19C71.0942 261.181 71.0758 261.172 71.0575 261.16C70.8945 261.071 70.7338 260.977 70.5732 260.881C63.9748 256.87 61.106 252.287 61.106 252.287L38.313 238.214L23.5249 229.084L26.8913 225.332L27.8291 224.287L28.6845 223.334L62.6873 245.316C62.6873 245.316 67.4657 251.427 74.7571 255.438C78.3214 257.397 83.4945 258.055 87.8552 258.215C84.7568 261.24 80.9998 262.778 77.3253 262.778Z" fill="#003132"/>
<path d="M26.8907 225.332L28.683 223.334L27.8285 224.287L26.8907 225.332Z" fill="#D88718"/>
<path d="M247.536 225.286L241.431 218.482C242.259 217.935 251.077 211.91 255.722 200.731C257.225 197.108 258.07 194.12 258.524 191.709C265.345 200.046 264.051 212.446 255.442 219.14L247.536 225.286Z" fill="#CB8D5B"/>
<path d="M247.478 225.332L245.686 223.334L241.366 218.524C241.366 218.524 241.389 218.51 241.431 218.482L247.536 225.286L247.478 225.332Z" fill="#1D3D64"/>
<path d="M197.029 262.778C195.776 262.776 194.512 262.595 193.268 262.24L193.272 262.212C194.514 262.576 195.776 262.767 197.029 262.778Z" fill="#1C2C42"/>
<path d="M193.268 262.24C190.872 261.55 188.552 260.204 186.514 258.215C186.544 258.215 186.576 258.213 186.605 258.213C188.618 260.177 190.906 261.515 193.273 262.212L193.268 262.24Z" fill="#EF491D"/>
<path d="M197.044 262.778C197.039 262.778 197.035 262.778 197.03 262.778C195.777 262.767 194.515 262.576 193.273 262.212C190.907 261.515 188.619 260.177 186.606 258.213C190.95 258.044 196.073 257.383 199.612 255.438C206.903 251.427 211.682 245.316 211.682 245.316L245.686 223.334L247.478 225.332L250.845 229.084L213.263 252.287C213.263 252.287 210.394 256.87 203.796 260.881C201.707 262.148 199.392 262.778 197.044 262.778Z" fill="#003132"/>
<path d="M247.478 225.332L245.685 223.334L247.478 225.332Z" fill="#1B3659"/>
<path d="M87.6459 239.708C84.614 239.708 80.2672 237.609 77.8413 234.43C74.9196 230.603 75.358 226.572 79.0186 226.572C79.1931 226.572 79.3744 226.581 79.5626 226.602C79.5626 226.602 79.6199 226.599 79.7278 226.599C80.8547 226.599 87.4301 226.758 89.7 230.42C92.1855 234.43 92.376 237.78 89.7 239.256C89.1446 239.563 88.44 239.708 87.6459 239.708Z" fill="#006669"/>
<path d="M71.2911 230.779C70.155 230.779 68.5278 229.993 67.619 228.802C66.5242 227.369 66.6895 225.859 68.0596 225.859C68.1262 225.859 68.1927 225.864 68.2639 225.871C68.2639 225.871 68.2869 225.868 68.3259 225.868C68.7482 225.868 71.2108 225.928 72.06 227.301C72.9918 228.802 73.0652 230.057 72.06 230.61C71.8534 230.724 71.5895 230.779 71.2911 230.779Z" fill="#006669"/>
<path d="M187.08 239.708C186.286 239.708 185.582 239.563 185.026 239.256C182.35 237.78 182.541 234.43 185.026 230.42C187.296 226.758 193.871 226.599 194.998 226.599C195.106 226.599 195.163 226.602 195.163 226.602C195.352 226.581 195.533 226.572 195.707 226.572C199.37 226.572 199.806 230.603 196.885 234.43C194.459 237.609 190.114 239.708 187.08 239.708Z" fill="#006669"/>
<path d="M97.379 378.125C96.8413 378.125 96.3629 378.042 95.9867 377.867C94.1691 377.024 94.3 375.11 95.9867 372.817C97.6734 370.525 101.799 369.543 101.799 369.543C101.891 369.535 101.979 369.531 102.067 369.531C104.71 369.531 106.037 372.891 104.028 375.11C102.384 376.926 99.4357 378.125 97.379 378.125Z" fill="#006669"/>
<path d="M203.435 230.779C203.136 230.779 202.873 230.724 202.666 230.61C201.663 230.057 201.734 228.802 202.666 227.301C203.515 225.928 205.978 225.868 206.4 225.868C206.439 225.868 206.462 225.871 206.462 225.871C206.533 225.864 206.6 225.859 206.666 225.859C208.036 225.859 208.202 227.369 207.107 228.802C206.198 229.993 204.571 230.779 203.435 230.779Z" fill="#006669"/>
<path d="M124.508 347.863V296.878H150.024H124.508V347.863Z" fill="#1C2C42"/>
<path d="M154.021 333.438H148.033V286.54H148.084C150.125 281.09 152.175 276.038 155.779 271.562L154.021 333.438Z" fill="#F5B100"/>
<path d="M127.377 333.438H122.004L120.492 275C120.492 275 120.494 275.002 120.496 275.004C123.33 278.775 125.651 282.902 127.377 287.303V326.528V333.438Z" fill="#F5B100"/>
<path d="M147.992 287.031H127.245C125.551 282.408 123.273 278.072 120.492 274.109C120.71 274.228 128.574 278.548 137.618 279.005C137.879 279.018 138.141 279.024 138.402 279.024C147.143 279.024 154.516 272.742 154.918 272.422C151.27 277.047 150.058 281.398 147.992 287.031Z" fill="#003132"/>
<path d="M150.043 240.625H133.974C132.232 240.625 130.82 239.086 130.82 237.188C130.82 235.289 132.232 233.75 133.974 233.75H150.043C151.785 233.75 153.197 235.289 153.197 237.188C153.197 239.086 151.785 240.625 150.043 240.625Z" fill="#FAEA34"/>
<path d="M98.6965 385C97.4926 385 96.3065 384.856 95.1598 384.535C94.9865 384.486 94.8365 384.419 94.6721 384.362C114.514 380.373 120.487 367.086 120.828 362.808C121.191 358.266 117.34 333.438 117.34 333.438H129.098C129.098 333.438 128.205 362.733 127.312 365.459C126.419 368.184 118.381 375.678 113.915 379.085C110.241 381.888 104.296 385 98.6965 385Z" fill="#003132"/>
<path d="M175.039 378.125C173.325 378.125 170.869 376.926 169.499 375.11C167.824 372.891 168.93 369.531 171.133 369.531C171.206 369.531 171.281 369.535 171.356 369.543C171.356 369.543 174.794 370.525 176.2 372.817C177.605 375.11 177.714 377.024 176.2 377.867C175.886 378.042 175.487 378.125 175.039 378.125Z" fill="#006669"/>
<path d="M175.193 385C169.873 385 164.226 381.888 160.735 379.085C156.493 375.678 148.857 368.184 148.008 365.459C147.16 362.733 146.312 333.438 146.312 333.438H157.482C157.482 333.438 153.824 358.266 154.168 362.808C154.492 367.086 160.167 380.373 179.016 384.362C178.86 384.419 178.718 384.486 178.553 384.535C177.464 384.856 176.337 385 175.193 385Z" fill="#003132"/>
<path d="M170.037 52.0746C168.837 55.5339 167.282 58.857 165.509 61.5264H165.481C165.563 60.7909 165.618 60.0283 165.672 59.2656C166.109 56.7324 166.436 54.3627 166.6 52.1019C167.446 41.9692 165.236 34.8055 156.507 31.3734C157.134 31.5096 157.761 31.6185 158.362 31.7547C164.308 32.9805 168.482 31.9726 171.346 30.3928C174.047 33.6069 173.092 43.3311 170.037 52.0746Z" fill="#472917"/>
<path d="M106.368 51.5027C106.995 52.5377 107.677 53.5183 108.386 54.4172C108.386 57.3862 108.823 59.2657 108.823 59.2657C109.123 63.297 109.477 66.8379 109.859 69.9976C105.909 71.1525 103.296 65.9799 102.6 60.8101C101.937 55.869 103.023 50.9307 106.368 51.5027Z" fill="#D19D71"/>
<path d="M108.469 52.0474C108.797 47.3351 110.27 40.9341 115.044 34.8871C121.891 24.0462 142.459 28.4588 156.453 31.3461L156.508 31.3734C165.237 34.8054 167.447 41.9691 166.601 52.1018L165.865 52.0474C153.316 51.4754 149.852 54.3899 137.249 54.4171H137.058C134.357 54.4171 132.093 54.2809 130.047 54.063C122.573 53.3003 118.317 51.6116 108.469 52.0474Z" fill="#E6B586"/>
<path d="M108.468 52.0474C108.386 52.8918 108.386 53.6817 108.386 54.4171C107.677 53.5182 106.995 52.5377 106.368 51.5026C100.557 41.8329 98.9478 26.4977 105.713 24.2913C108.441 28.6768 111.878 32.6263 115.042 34.8871C110.269 40.9341 108.796 47.3351 108.468 52.0474Z" fill="#472917"/>
<path d="M108.824 59.266C108.824 59.266 108.387 57.3865 108.387 54.4175C108.387 53.6821 108.387 52.8922 108.469 52.0478C118.317 51.6119 122.573 53.3007 130.047 54.0634C132.093 54.2813 134.357 54.4175 137.058 54.4175H137.249C149.852 54.3903 153.316 51.4758 165.864 52.0478L166.601 52.1022C166.437 54.363 166.11 56.7328 165.673 59.266C165.619 60.0287 165.564 60.7913 165.483 61.5267C165.21 64.6591 164.937 67.492 164.637 70.0524C164.528 70.9785 164.419 71.8774 164.282 72.7218L164.119 72.6945C150.861 74.6012 149.415 67.9278 141.531 65.9939C140.277 65.6943 138.885 65.5308 137.249 65.5036H137.058C125.082 65.6125 125.573 74.9008 110.215 72.6945C110.079 71.8229 109.97 70.924 109.86 69.9979C109.479 66.8383 109.124 63.2973 108.824 59.266ZM152.85 64.523C160.027 66.1028 161.773 59.266 161.773 59.266C161.773 59.266 155.335 56.1335 146.66 59.266C146.66 59.266 146.824 63.2155 152.85 64.523ZM128.165 59.266C119.49 56.1335 113.052 59.266 113.052 59.266C113.052 59.266 114.798 66.1028 121.972 64.523C128.001 63.2155 128.165 59.266 128.165 59.266Z" fill="#052E2F"/>
<path d="M151.46 7.73011C161.171 16.3102 166.027 27.1784 176.611 25.1628C176.611 25.1628 175.193 28.2952 171.346 30.3926C168.482 31.9724 164.308 32.9803 158.361 31.7545C157.761 31.6183 157.134 31.5094 156.506 31.3732L156.452 31.346C142.458 28.4587 121.889 24.046 115.042 34.887C111.878 32.6262 108.441 28.6766 105.713 24.2912C99.7931 14.785 97.0379 3.18127 107.022 2.01002C121.644 0.293991 141.776 -0.850025 151.46 7.73011Z" fill="#784029"/>
<path d="M170.038 52.0746C173.939 55.4794 171.184 71.5774 164.637 70.0521C164.937 67.4916 165.21 64.6588 165.483 61.5264H165.51C167.283 58.857 168.838 55.5339 170.038 52.0746Z" fill="#D19D71"/>
<path d="M141.53 65.9936C149.414 67.9275 150.86 74.6009 164.117 72.6942L164.281 72.7215C162.835 83.5897 161.008 89.1463 159.48 92.9869C157.407 98.1895 144.476 103.882 137.248 103.882C130.019 103.882 117.088 98.1895 115.015 92.9869C113.487 89.1463 111.66 83.5896 110.214 72.6942C125.572 74.9005 125.081 65.6122 137.057 65.5033H137.248C138.884 65.5305 140.275 65.694 141.53 65.9936Z" fill="#E6B586"/>
<path d="M159.481 92.9872C159.018 98.8435 163.191 104.182 168.429 108.486C154.653 114.778 137.249 117.802 137.249 117.802C125.71 116.848 108.071 107.353 107.444 107.107C113.663 102.722 115.507 99.0341 115.016 92.9872C117.09 98.1897 130.02 103.883 137.249 103.883C144.478 103.883 157.408 98.1897 159.481 92.9872Z" fill="#D19D71"/>
<path d="M161.772 59.2663C161.772 59.2663 160.026 66.1031 152.852 64.5233C146.823 63.2158 146.659 59.2663 146.659 59.2663C155.334 56.1339 161.772 59.2663 161.772 59.2663Z" fill="#F9C916"/>
<path d="M128.163 59.2663C128.163 59.2663 127.999 63.2158 121.971 64.5233C114.796 66.1031 113.051 59.2663 113.051 59.2663C113.051 59.2663 119.488 56.1339 128.163 59.2663Z" fill="#F9C916"/>
<path d="M106.504 51.576C105.437 51.6522 104.69 52.1969 104.354 53.0277C103.945 53.7986 103.77 54.7383 103.71 55.6808C103.571 57.5684 103.661 59.5405 104.073 61.4363C104.319 63.3593 104.908 65.2333 105.721 66.9139C106.525 68.5619 107.81 70.0818 109.968 69.932L110.004 70.0627C109.008 70.3787 107.87 70.2534 106.97 69.7059C106.067 69.1638 105.374 68.3467 104.823 67.4723C103.724 65.7073 103.107 63.6943 102.728 61.6678C102.398 59.6331 102.303 57.5412 102.663 55.4956C102.854 54.4823 103.154 53.4608 103.768 52.6028C104.349 51.7175 105.483 51.2164 106.52 51.4398L106.504 51.576Z" fill="#E6B586"/>
<path d="M170.183 52.0143C171.591 53.3517 171.902 55.3837 172.033 57.2087C172.128 59.0827 171.962 60.9649 171.547 62.7926C171.105 64.6094 170.461 66.4098 169.365 67.9515C168.361 69.5041 166.391 70.7081 164.501 70.0625L164.539 69.9318C166.49 70.0026 167.712 68.7932 168.503 67.3414C169.302 65.876 169.91 64.2171 170.219 62.4875C170.704 60.7932 170.865 59.02 170.972 57.2631C171.034 56.3833 171.021 55.4981 170.893 54.6374C170.811 53.7358 170.603 52.9431 170.088 52.1096L170.183 52.0143Z" fill="#E6B586"/>
<path d="M108.589 52.0608L108.485 52.0524L108.589 52.0608Z" fill="#042420"/>
<path d="M108.727 51.99C109.002 48.9284 109.698 45.9158 110.833 43.0776C111.886 40.2039 113.392 37.5019 115.244 35.0504C114.42 38.2918 113.296 40.8958 112.298 43.6387C111.212 46.3435 110.304 49.0373 108.727 51.99ZM115.187 34.9033H115.184H115.187Z" fill="#CB8D5B"/>
<path d="M108.45 52.0499C107.598 50.4428 107.328 48.7023 107.347 47.0325C107.339 45.3383 107.727 43.6877 108.291 42.1051C108.932 40.5553 109.754 39.0653 110.897 37.8096C112.012 36.5485 113.363 35.4589 115.081 34.8215L115.294 34.9877C113.417 37.4555 111.895 40.182 110.834 43.0775C109.688 45.9403 108.99 48.9828 108.722 52.0717L108.45 52.0499Z" fill="#503323"/>
<path d="M165.681 59.2549C165.679 59.2494 165.679 59.244 165.676 59.2385C165.7 59.0969 165.725 58.9525 165.749 58.8136C165.749 58.8163 165.749 58.8163 165.749 58.819C165.725 58.9634 165.703 59.1105 165.681 59.2549Z" fill="#3F2010"/>
<path d="M166.568 52.099L165.864 52.0473C165.823 52.0445 165.779 52.0445 165.738 52.0418C165.695 52.0391 165.651 52.0391 165.61 52.0364C165.605 52.0364 165.602 52.0364 165.599 52.0364C165.378 52.0255 165.16 52.0173 164.944 52.0118C164.925 51.7176 164.906 51.4235 164.887 51.132C164.68 48.5226 164.552 45.9921 164.063 43.6442C163.651 41.2771 162.92 39.1253 161.712 37.1423C161.303 36.4722 160.831 35.8267 160.299 35.1948C160.651 35.2111 161.003 35.2192 161.355 35.2192C161.671 35.2192 161.99 35.2138 162.309 35.2002C162.566 35.4617 162.811 35.7368 163.046 36.0228C164.764 38.0657 165.741 40.6289 166.207 43.241C166.748 46.1583 166.786 49.13 166.568 52.099Z" fill="#CB8D5B"/>
<path d="M165.676 59.238C165.242 56.7403 165.095 54.3433 164.945 52.0117C165.16 52.0171 165.378 52.0253 165.599 52.0362C165.602 52.0362 165.605 52.0362 165.61 52.0362C165.651 52.0389 165.695 52.0389 165.738 52.0416C165.779 52.0444 165.823 52.0444 165.864 52.0471L166.568 52.0988C166.472 53.409 166.328 54.7164 166.156 56.0212C166.008 56.9255 165.872 57.8516 165.749 58.8131C165.725 58.952 165.7 59.0964 165.676 59.238Z" fill="#042420"/>
<path d="M156.643 31.2401C159.505 31.3082 162.44 32.4713 164.691 34.6423C167.012 36.7778 168.316 39.823 168.886 42.7403C169.391 45.7011 169.301 48.6101 168.758 51.3775C168.237 54.1504 167.348 56.8062 165.945 59.304L165.681 59.2549C166.513 53.9598 167.184 48.5121 166.207 43.2414C165.741 40.6292 164.764 38.0661 163.046 36.0232C161.354 33.9585 159.033 32.4795 156.537 31.488L156.643 31.2401Z" fill="#503323"/>
<path d="M105.918 24.4744C104.818 25.7028 104.614 26.7269 104.48 27.9036C104.322 29.0014 104.431 30.1862 104.499 31.3493C104.666 32.5314 104.707 33.7217 104.966 34.9311C105.127 36.1405 105.31 37.369 105.588 38.5893C105.981 41.0626 106.559 43.5331 107.031 46.1072L108.67 54.2924L108.351 54.5457C106.532 52.4047 105.132 49.9341 104.033 47.3574C102.934 44.7779 102.104 42.0841 101.567 39.3248C101.095 36.5601 100.882 33.7217 101.27 30.9134C101.48 29.5161 101.815 28.1052 102.533 26.844C103.209 25.5883 104.412 24.5071 105.765 24.0985L105.918 24.4744Z" fill="#593A29"/>
<path d="M171.654 30.2764C173.419 32.5944 173.43 35.6097 173.378 38.3117C173.269 41.0764 172.838 43.8112 172.232 46.4996C170.86 51.8166 168.967 57.0927 165.805 61.6361L165.464 61.41C165.751 58.362 166.168 55.7444 166.667 53.1513C167.106 50.5527 167.723 48.0604 168.252 45.5599C168.598 44.3314 168.874 43.0867 169.16 41.8501C169.545 40.6271 169.742 39.3877 170.123 38.1674C170.41 36.939 170.762 35.7105 170.999 34.4684C171.261 33.1882 171.523 32.0414 171.324 30.516L171.654 30.2764Z" fill="#593A29"/>
<path d="M146.745 85.4276C145.831 85.3895 145.013 85.1825 144.151 85.1035L141.758 84.6922C140.918 84.5778 140.585 84.6077 140.321 84.8148C139.974 84.9891 139.385 85.4222 139.107 85.7817L138.657 86.3701L137.716 86.4219H137.203L136.27 86.381L135.812 85.7817C135.536 85.4167 134.944 84.9891 134.6 84.8093L134.147 84.6214C133.899 84.6296 133.793 84.6486 133.684 84.635L133.157 84.6895L130.765 85.0981C129.903 85.1825 129.087 85.3868 128.173 85.4276L128.078 85.2452C129.565 84.4743 131.07 83.7388 132.666 83.1832C133.436 82.9053 134.368 82.6875 135.22 83.0116C136.054 83.3003 136.755 83.8261 137.356 84.458L137.203 84.3899H137.716L137.56 84.458C138.163 83.8261 138.864 83.3003 139.699 83.0143C140.553 82.6875 141.477 82.9053 142.252 83.1832C143.848 83.7388 145.354 84.4743 146.84 85.2452L146.745 85.4276Z" fill="#C99A69"/>
<path d="M107.444 107.108C110.027 105.318 109.096 105.007 111.156 102.643C113.464 99.9844 115.302 96.615 115.019 93.0058L115.292 92.9922C115.971 94.7709 115.815 96.8247 115.384 98.7559C114.852 100.671 113.93 102.455 112.796 104.035C111.175 106.317 111.09 106.195 108.965 107.867L107.444 107.108Z" fill="#E6B586"/>
<path d="M166.084 109.562C164.158 107.813 162.399 105.828 161.048 103.493C159.193 100.418 158.184 96.3569 159.469 92.9929L159.742 93.0066C159.488 96.3514 160.849 99.5846 162.8 102.246C164.486 104.556 166.564 106.555 168.793 108.355L166.084 109.562Z" fill="#E6B586"/>
<path d="M137.279 107.532C134.319 107.532 131.52 106.881 128.948 106.064C126.343 105.236 123.852 104.198 121.43 102.923C119.332 101.815 117.3 100.546 115.385 98.7587C115.385 98.756 115.385 98.756 115.385 98.756C115.712 97.2987 115.879 95.7733 115.649 94.346C115.977 94.8254 116.356 95.2722 116.757 95.6698C118.56 97.4703 120.729 98.8132 122.955 99.9844C127.437 102.213 132.281 104.013 137.377 104.157C142.495 103.986 147.318 102.207 151.805 99.9708C154.028 98.8023 156.194 97.4594 157.997 95.6589C158.388 95.2721 158.753 94.8418 159.075 94.3815C158.797 95.7761 158.851 97.2442 159.146 98.6797C157.277 100.404 155.294 101.649 153.267 102.79C150.886 104.122 148.406 105.187 145.798 105.996C143.144 106.805 140.599 107.464 137.298 107.532C137.293 107.532 137.287 107.532 137.279 107.532Z" fill="#B87A4D"/>
<path d="M160.03 96.476C159.784 95.4273 159.67 94.3459 159.727 93.2536C159.754 93.1937 159.782 93.1338 159.809 93.0739L160.03 96.476ZM114.689 96.3997L115.047 93.5751C115.066 94.5393 114.935 95.4817 114.689 96.3997Z" fill="#E1C6AE"/>
<path d="M115.383 98.759C115.086 98.4812 114.791 98.1897 114.499 97.8873L114.687 96.4001C114.933 95.4822 115.064 94.5398 115.045 93.5755L115.072 93.3658C115.238 93.7063 115.432 94.0331 115.648 94.3463C115.877 95.7736 115.71 97.299 115.383 98.7563C115.383 98.7563 115.383 98.7563 115.383 98.759Z" fill="#CB8D5B"/>
<path d="M159.145 98.6794C158.851 97.244 158.796 95.7758 159.074 94.3812C159.322 94.0216 159.543 93.6457 159.726 93.2535C159.669 94.3458 159.784 95.4271 160.029 96.4758L160.114 97.7343C159.794 98.0639 159.47 98.3798 159.145 98.6794Z" fill="#CB8D5B"/>
<path d="M165.509 61.5264H165.481C165.487 61.4937 165.49 61.461 165.492 61.4311L165.547 61.4665C165.536 61.4855 165.522 61.5073 165.509 61.5264ZM165.64 59.6987C165.651 59.5543 165.661 59.4127 165.672 59.2684L165.691 59.2711C165.675 59.4127 165.659 59.5543 165.64 59.6987Z" fill="#3F2010"/>
<path d="M164.651 69.9354C164.615 69.9354 164.582 69.9354 164.547 69.9327C164.975 66.3835 165.302 62.818 165.608 59.2634L165.673 59.2688C165.663 59.4132 165.652 59.5548 165.641 59.6992C165.578 60.2548 165.518 60.8241 165.463 61.4098L165.493 61.4316C165.491 61.4615 165.488 61.4942 165.483 61.5269C165.212 64.6103 164.945 67.405 164.651 69.9354Z" fill="#042420"/>
<path d="M164.7 69.9354C164.683 69.9354 164.667 69.9354 164.651 69.9354C164.945 67.405 165.213 64.6103 165.483 61.5269H165.51C165.524 61.5078 165.537 61.486 165.548 61.4669L165.805 61.6359C165.914 61.4779 166.02 61.3199 166.126 61.1619C166.26 63.9893 166.246 66.8139 166.181 69.6467C165.742 69.8319 165.251 69.9354 164.7 69.9354Z" fill="#B87A4D"/>
<path d="M166.167 70.1179L164.539 70.0035C164.541 69.979 164.544 69.9545 164.547 69.9327C164.582 69.9354 164.615 69.9354 164.65 69.9354C164.667 69.9354 164.683 69.9354 164.699 69.9354C165.251 69.9354 165.742 69.8319 166.181 69.6467C166.175 69.8047 166.173 69.9627 166.167 70.1179Z" fill="#CB8D5B"/>
<path d="M165.805 61.6361L165.549 61.4672L165.494 61.4318L165.464 61.41C165.519 60.8244 165.579 60.2551 165.641 59.6994C165.661 59.5551 165.677 59.4135 165.693 59.2718L166.021 59.2963C166.064 59.9173 166.1 60.5411 166.127 61.1622C166.021 61.3201 165.914 61.4781 165.805 61.6361Z" fill="#4F2D1C"/>
<path d="M109.676 69.9434C109.008 69.9434 108.429 69.7772 107.928 69.4993C107.791 66.1163 107.827 62.7306 107.903 59.3612L107.928 59.5137C107.783 58.1736 107.772 56.9669 107.859 55.7112C107.906 55.191 107.96 54.6735 108.028 54.1614C108.135 54.2894 108.241 54.4174 108.35 54.5454L108.386 54.5181C108.394 57.4299 108.822 59.2659 108.822 59.2659C109.122 63.2699 109.472 66.7946 109.851 69.9379C109.791 69.9406 109.733 69.9434 109.676 69.9434Z" fill="#B87A4D"/>
<path d="M108.405 52.9706L108.302 52.4531C108.326 52.3169 108.353 52.1807 108.381 52.0445L108.468 52.0527C108.438 52.3659 108.419 52.671 108.405 52.9706Z" fill="#3F2010"/>
<path d="M109.991 70.011L109.97 69.932C109.929 69.9347 109.89 69.9374 109.852 69.9374C109.473 66.7941 109.124 63.2695 108.824 59.2654C108.824 59.2654 108.396 57.4295 108.387 54.5177L108.671 54.2916L108.406 52.9705C108.42 52.6709 108.439 52.3659 108.469 52.0526L108.586 52.0608L108.723 52.0717C108.723 52.0717 108.723 52.0717 108.723 52.0689L108.791 52.0744C108.644 54.4632 108.717 56.8983 109.176 59.2272L109.181 59.249V59.2627C109.489 62.8391 109.82 66.4291 110.253 70.0028L109.991 70.011Z" fill="#042420"/>
<path d="M107.953 70.0627C107.942 69.8748 107.936 69.6868 107.928 69.4989C108.43 69.7767 109.008 69.9429 109.677 69.9429C109.734 69.9429 109.791 69.9402 109.851 69.9375C109.889 69.9375 109.928 69.9347 109.969 69.932L109.99 70.011L107.953 70.0627Z" fill="#CB8D5B"/>
<path d="M108.722 52.0717L108.585 52.0607L108.722 52.0689C108.722 52.0717 108.722 52.0717 108.722 52.0717Z" fill="#472818"/>
<path d="M108.351 54.5457C108.242 54.4176 108.136 54.2896 108.03 54.1616C108.106 53.5869 108.196 53.0176 108.302 52.4538L108.406 52.9713L108.671 54.2924L108.387 54.5184L108.351 54.5457Z" fill="#4F2D1C"/>
<path d="M110.133 72.6155C109.554 68.1865 109.164 63.7302 108.801 59.2931L108.804 59.3122C108.346 56.9097 108.291 54.4719 108.449 52.0504L108.722 52.0694C108.747 53.2788 108.837 54.4773 108.992 55.6622C109.153 56.8362 109.331 58.0429 109.639 59.1242L109.636 59.1188L109.655 59.2277C110.381 63.7765 111.038 68.3608 111.854 72.877L110.133 72.6155Z" fill="#1A3F40"/>
<path d="M164.632 72.504C163.912 78.0388 162.897 83.5355 161.279 88.9015C160.911 90.0973 160.494 91.2849 160.044 92.4562C159.659 93.6574 158.892 94.7715 157.998 95.6594C156.194 97.4599 154.029 98.8028 151.805 99.9713C147.318 102.208 142.495 103.986 137.377 104.158C132.282 104.013 127.437 102.213 122.955 99.9849C120.729 98.8137 118.56 97.4708 116.757 95.6703C115.862 94.7824 115.093 93.6628 114.706 92.4616C114.253 91.2904 113.841 90.1055 113.47 88.907C111.863 83.5737 110.854 78.1151 110.134 72.6157L111.855 72.8772C112.804 78.1287 113.964 83.2905 115.682 88.2125C116.059 89.3565 116.476 90.4923 116.921 91.5982C117.188 92.2792 117.286 92.478 117.545 92.8648C117.788 93.227 118.135 93.6002 118.492 93.9625C120.003 95.4252 122.038 96.6754 124.125 97.7214C128.323 99.7943 133.073 101.262 137.437 101.489C139.426 101.499 141.851 101.036 144.077 100.383C146.339 99.7234 148.57 98.8545 150.684 97.8031C152.776 96.7544 154.817 95.5042 156.339 94.0306C156.707 93.6629 157.04 93.2788 157.307 92.9219C157.436 92.7177 157.471 92.7613 157.643 92.399L157.749 92.192L157.804 92.0776L157.987 91.6608C158.47 90.5495 158.917 89.43 159.329 88.2859C160.982 83.7235 162.049 78.8805 163.025 74.0157C163.112 73.6126 163.2 73.2095 163.282 72.8036L164.632 72.504Z" fill="#EAC38F"/>
<path d="M163.28 72.803C164.205 68.3331 164.873 63.8007 165.678 59.2682L165.948 59.2899C165.59 63.6917 165.203 68.1098 164.63 72.5033L163.28 72.803Z" fill="#1A3F40"/>
<path d="M165.984 52.1999C161.18 51.9657 156.387 52.3688 151.662 53.2323C146.937 54.093 142.12 54.7059 137.291 54.6896C132.466 54.7141 127.645 54.1203 122.921 53.2459C118.196 52.3688 113.403 51.9657 108.602 52.1999L108.591 51.9276C110.975 51.3011 113.414 51.0723 115.894 50.868C118.362 50.8054 120.853 50.9743 123.267 51.1622C128.087 51.5953 132.599 52.0665 137.289 51.9685C141.975 52.0393 146.495 51.5925 151.313 51.1131C153.724 50.8707 156.22 50.7563 158.692 50.8598C161.166 51.0696 163.616 51.2983 165.994 51.9276L165.984 52.1999Z" fill="#C99A69"/>
<path d="M164.268 72.8249C161.99 73.6721 159.519 74.0698 156.952 74.127C154.39 74.097 151.695 73.3425 149.439 72.1277C147.128 70.9891 145.293 69.6272 143.358 68.9707C141.49 68.2162 139.403 67.9166 137.363 67.9547C135.079 67.9248 133.208 68.257 131.26 69.0115C129.321 69.6898 127.474 71.0599 125.131 72.1467C122.842 73.2826 120.185 74.0534 117.629 74.1215C115.059 74.0616 112.615 73.6694 110.315 72.8223L110.351 72.5553C112.708 72.8713 115.097 73.0075 117.446 72.6997C119.795 72.4 122.04 71.5529 124.061 70.3245C126.094 69.1178 128.009 67.6388 130.235 66.6663C132.444 65.6749 134.899 65.2499 137.294 65.2336C139.714 65.2336 142.153 65.6286 144.376 66.6119C146.613 67.5652 148.52 69.0661 150.541 70.2864C152.552 71.5339 154.788 72.3973 157.143 72.6969C159.491 73.0074 161.873 72.874 164.235 72.5526L164.268 72.8249Z" fill="#C99A69"/>
<path d="M143.55 53.8785C144.267 51.7131 145.538 50.3647 146.93 49.248C148.313 48.0931 150.225 47.9895 151.927 47.5156C153.635 47.0416 155.386 46.6712 157.173 46.4751C158.971 46.3389 160.801 46.2217 162.563 46.6439V47.1887C160.924 47.6382 159.407 48.2892 157.945 49.0872C156.48 49.8526 155.048 50.6834 153.629 51.5305C152.205 52.3858 151.038 53.7259 149.398 54.1073C147.762 54.5268 146.04 54.7883 143.833 54.347L143.55 53.8785Z" fill="#472917"/>
<path d="M130.076 54.3197C127.866 54.7637 126.145 54.4995 124.511 54.08C122.869 53.6987 121.704 52.3585 120.28 51.5032C118.861 50.6589 117.429 49.828 115.964 49.0599C114.502 48.2618 112.985 47.6135 111.346 47.1614V46.6167C113.108 46.1945 114.939 46.3116 116.734 46.4478C118.523 46.6466 120.274 47.0143 121.982 47.491C123.684 47.9622 125.594 48.0657 126.98 49.2206C128.371 50.3374 129.642 51.6857 130.357 53.8512L130.076 54.3197Z" fill="#472917"/>
<path d="M139.423 79.4194C138.623 79.4194 137.827 79.2505 137.074 79.0217C136.313 78.812 135.617 78.3952 135.003 77.9485C134.371 77.5209 133.86 76.9543 133.448 76.3551L133.582 76.1971C134.976 77.3738 136.787 77.9512 138.591 77.9512C139.477 77.9512 140.366 77.8123 141.201 77.5345C141.515 75.9764 141.578 74.334 141.619 72.7215C141.646 71.286 141.651 69.8478 141.61 68.4068C142.208 68.5567 142.794 68.7419 143.359 68.9707C143.433 68.9952 143.509 69.0225 143.583 69.0497C143.665 70.2836 143.686 71.5257 143.64 72.7759C143.555 74.5301 143.438 76.0963 142.871 78.082L142.628 78.9373L141.91 79.1389C140.969 79.4004 140.244 79.4167 139.423 79.4194Z" fill="#CB8D5B"/>
<path d="M143.287 66.1818C142.701 65.9775 142.103 65.8086 141.498 65.6751C141.361 63.0793 141.132 60.4835 140.857 57.8958L141.059 57.874C141.721 59.4593 142.253 61.0827 142.635 62.7225C142.908 63.8665 143.124 65.0187 143.287 66.1818Z" fill="#042420"/>
<path d="M143.583 69.0493C143.509 69.0221 143.433 68.9948 143.359 68.9703C142.794 68.7415 142.208 68.5563 141.61 68.4065C141.605 68.1967 141.597 67.987 141.591 67.7746C141.567 67.0745 141.537 66.3745 141.499 65.6744C142.104 65.8079 142.701 65.9768 143.288 66.1811C143.359 66.685 143.419 67.1917 143.468 67.701C143.514 68.1477 143.553 68.5972 143.583 69.0493Z" fill="#B17848"/>
<path d="M141.877 65.7697C141.694 63.1275 141.418 60.4936 141.094 57.8705L140.821 57.8977C140.125 60.4445 139.817 62.9042 139.64 65.3284L141.877 65.7697Z" fill="#1A3F40"/>
<path d="M139.64 65.3292C139.577 66.179 139.533 67.0206 139.492 67.8623C139.421 69.483 139.4 71.0819 139.389 72.6645C139.397 73.4544 139.372 74.2388 139.348 75.007C139.359 75.3856 139.353 75.8133 139.34 76.2L139.168 76.26C138.622 76.3934 138.058 76.5487 137.471 76.5923C136.887 76.6331 136.26 76.6876 135.632 76.5814C134.978 76.5405 134.326 76.3634 133.603 76.1728L133.426 76.3798C135.578 78.2456 138.71 78.7441 141.418 77.8589L141.525 77.8262L141.549 77.7145C141.926 76.0475 142.008 74.3996 142.078 72.7353C142.141 71.0738 142.07 69.4149 141.997 67.7616C141.961 67.0969 141.923 66.435 141.877 65.7704L139.64 65.3292Z" fill="#FFD3A5"/>
<path d="M146.761 85.3987C145.269 84.6578 143.753 83.9441 142.173 83.4239C141.39 83.1597 140.558 82.9854 139.794 83.2931C139.033 83.5655 138.359 84.0857 137.819 84.6795L137.773 84.7259H137.716H137.203H137.146L137.102 84.6795C136.559 84.0857 135.885 83.5628 135.124 83.2931C134.36 82.9854 133.531 83.1624 132.743 83.4239C131.166 83.9441 129.649 84.6578 128.157 85.3987L128.092 85.2788C129.385 84.1049 130.798 83.1733 132.421 82.4351L133.07 82.1627C133.332 82.0674 133.602 82.0075 133.785 81.9802C134.418 81.8876 134.993 81.9666 135.525 82.1301C136.597 82.4869 137.361 83.0316 138.125 83.8025L137.203 83.3776L137.716 83.3749L136.791 83.7997C137.555 83.0289 138.321 82.4842 139.393 82.1301C140.525 81.7324 141.769 82.0265 142.5 82.4296C144.124 83.1733 145.537 84.1049 146.827 85.2788L146.761 85.3987Z" fill="#EAC38F"/>
<path d="M131.653 89.4843C133.402 90.3968 135.461 90.6528 137.42 90.5575C139.406 90.5411 141.384 90.1244 143.277 89.4707L143.372 89.7267C142.756 90.9769 141.847 91.7778 140.833 92.3443C139.82 92.9409 138.675 93.1942 137.507 93.2759C136.337 93.2732 135.131 93.0906 134.048 92.505C132.979 91.9521 131.953 91.0887 131.509 89.7104L131.653 89.4843Z" fill="#C99A69"/>
<path d="M131.618 89.541C132.701 89.6091 133.656 89.6527 134.605 89.6554C135.546 89.6527 136.465 89.7235 137.393 89.6036C138.326 89.6717 139.253 89.5328 140.227 89.5192C141.201 89.4974 142.194 89.4375 143.301 89.5328L143.348 89.6608C141.466 90.3854 139.469 90.8784 137.434 90.9628C135.41 90.9928 133.328 90.6687 131.544 89.6527L131.618 89.541Z" fill="#EAC38F"/>
<path d="M136.366 87.3874C132.28 87.4309 129.959 86.7968 124.795 85.0781L130.181 87.9668L136.206 88.8261C140.337 88.903 146.82 87.3874 150.615 85.0779C146.312 86.7967 140.453 87.3819 136.366 87.3874Z" fill="#B9926A"/>
<path d="M115.084 34.8221C118.413 29.625 124.924 27.9636 132.339 27.9636C124.924 27.9663 118.413 29.625 115.084 34.8221ZM163.399 32.2999C163.396 32.2999 163.393 32.2999 163.39 32.2999C163.393 32.2999 163.396 32.2999 163.399 32.2999ZM163.407 32.2999C166.778 32.2972 169.373 31.48 171.348 30.3932C169.373 31.48 166.778 32.2999 163.407 32.2999ZM172.54 31.7986C172.308 31.2675 172.019 30.7582 171.653 30.276L171.402 30.4585C171.383 30.4367 171.367 30.415 171.348 30.3932C175.194 28.2959 176.613 25.1634 176.613 25.1634C176.585 25.1688 176.555 25.1743 176.525 25.1797C176.542 25.1525 176.555 25.1225 176.572 25.0953L176.945 25.2696C176.37 27.8246 174.709 30.0826 172.54 31.7986ZM156.453 31.3466C156.371 31.3302 156.287 31.3112 156.205 31.2948C156.287 31.3112 156.371 31.3302 156.453 31.3466ZM156.194 31.292C156.134 31.2811 156.077 31.2676 156.02 31.2567C156.077 31.2676 156.134 31.2811 156.194 31.292ZM155.698 31.1912C155.689 31.1885 155.687 31.1885 155.679 31.1858C155.687 31.1885 155.689 31.1885 155.698 31.1912ZM154.847 31.0142C154.833 31.0115 154.817 31.0088 154.8 31.0061C154.817 31.0088 154.833 31.0115 154.847 31.0142ZM132.363 27.9636C132.358 27.9636 132.352 27.9636 132.349 27.9636C132.352 27.9636 132.358 27.9636 132.363 27.9636Z" fill="#E1C6AE"/>
<path d="M165.012 34.9501C164.909 34.8466 164.799 34.7431 164.69 34.6423C163.569 33.5609 162.279 32.7301 160.912 32.1608C161.782 32.2561 162.606 32.2998 163.389 32.2998C163.392 32.2998 163.395 32.2998 163.397 32.2998C163.4 32.2998 163.403 32.2998 163.405 32.2998C166.777 32.2998 169.371 31.4799 171.346 30.3931C171.365 30.4149 171.382 30.4366 171.401 30.4584L171.322 30.5156C171.425 31.3082 171.404 32.0001 171.322 32.6593C169.412 33.8441 167.233 34.5932 165.012 34.9501ZM156.575 31.4008C156.553 31.3926 156.531 31.3819 156.507 31.3737C156.531 31.3791 156.556 31.3845 156.58 31.3899L156.575 31.4008Z" fill="#3F2010"/>
<path d="M160.3 35.1953C159.484 35.1572 158.674 35.0754 157.875 34.9474L153.736 34.34C151.011 33.8824 148.319 33.3648 145.64 32.9672C142.977 32.4414 140.32 32.0492 137.688 31.7006C135.058 31.2675 132.448 31.115 129.864 30.9461C129.381 30.9352 128.901 30.9297 128.421 30.9297C123.776 30.9297 119.201 31.529 115.36 35.0155L115.185 34.9039L115.109 34.8413H115.106L115.084 34.8249C115.084 34.8222 115.084 34.8248 115.084 34.8221C118.413 29.625 124.924 27.9663 132.339 27.9635C132.341 27.9635 132.344 27.9635 132.349 27.9635C132.352 27.9635 132.358 27.9635 132.363 27.9635C139.693 27.9663 147.904 29.5842 154.8 31.0061C154.817 31.0088 154.833 31.0114 154.847 31.0142C155.128 31.0714 155.406 31.1285 155.679 31.1857C155.687 31.1885 155.689 31.1885 155.698 31.1912C155.804 31.213 155.913 31.2348 156.02 31.2566C156.077 31.2675 156.134 31.2811 156.194 31.292C156.197 31.2947 156.202 31.2948 156.205 31.2948C156.287 31.3111 156.371 31.3302 156.453 31.3465L156.508 31.3738C156.532 31.382 156.554 31.3928 156.576 31.4009L156.538 31.4882C157.975 32.7357 159.249 33.9396 160.3 35.1953Z" fill="#CB8D5B"/>
<path d="M115.065 34.8269L115.013 34.797C116.514 32.3973 118.849 30.5668 121.457 29.5099C124.064 28.4231 126.869 27.9465 129.657 27.7422C130.715 27.6741 131.773 27.6441 132.832 27.6441C137.363 27.6441 141.878 28.2161 146.33 28.9434C149.074 29.4228 151.799 29.9921 154.519 30.5696C157.247 31.1225 159.931 31.8661 162.67 31.9697C162.997 31.986 163.322 31.9915 163.649 31.9915C166.061 31.9915 168.48 31.5665 170.66 30.5342C173.088 29.3983 175.243 27.5297 176.525 25.179C176.555 25.1736 176.585 25.1681 176.612 25.1627C176.612 25.1627 175.194 28.2952 171.347 30.3925C169.372 31.4793 166.778 32.2965 163.406 32.2992C163.404 32.2992 163.401 32.2992 163.398 32.2992C163.395 32.2992 163.393 32.2992 163.39 32.2992C162.607 32.2992 161.783 32.2556 160.913 32.1602C159.535 31.5855 158.081 31.275 156.644 31.2396L156.581 31.3894C156.557 31.3839 156.532 31.3786 156.507 31.3731L156.453 31.3459C156.371 31.3295 156.287 31.3105 156.205 31.2941C156.202 31.2941 156.196 31.2941 156.194 31.2913C156.134 31.2805 156.076 31.2669 156.019 31.256C155.913 31.2342 155.804 31.2123 155.697 31.1905C155.689 31.1878 155.686 31.1878 155.678 31.1851C155.405 31.1279 155.127 31.0707 154.846 31.0135C154.833 31.0108 154.816 31.0081 154.8 31.0054C147.904 29.5835 139.693 27.9656 132.363 27.9629C132.357 27.9629 132.352 27.9629 132.349 27.9629C132.344 27.9629 132.341 27.9629 132.338 27.9629C124.924 27.9629 118.412 29.6243 115.084 34.8215C115.084 34.8242 115.084 34.8215 115.084 34.8242L115.081 34.8215C115.076 34.8215 115.07 34.8242 115.065 34.8269Z" fill="#6A321C"/>
<path d="M115.187 34.9038L115.106 34.8402H115.109L115.187 34.9038Z" fill="#B36D3E"/>
<path d="M115.185 34.9038L115.064 34.8275C115.07 34.8247 115.075 34.822 115.081 34.822L115.084 34.8248L115.105 34.8412L115.185 34.9038Z" fill="#472818"/>
<path d="M161.354 35.219C161.003 35.219 160.651 35.2109 160.299 35.1945C159.248 33.9388 157.974 32.7349 156.537 31.4874C158.686 32.3427 160.708 33.5575 162.309 35.2C161.99 35.2136 161.671 35.219 161.354 35.219Z" fill="#B36D3E"/>
<path d="M162.309 35.2001C160.708 33.5576 158.686 32.3428 156.537 31.4875L156.643 31.2396C158.081 31.275 159.535 31.5855 160.912 32.1602C162.279 32.7295 163.569 33.5604 164.691 34.6417C164.8 34.7425 164.909 34.846 165.012 34.9495C164.191 35.083 163.362 35.162 162.541 35.1865C162.465 35.192 162.386 35.1946 162.309 35.2001Z" fill="#472818"/>
<path d="M171.322 32.6586C171.404 31.9994 171.426 31.3075 171.322 30.5149L171.401 30.4577L171.652 30.2752C172.018 30.7573 172.307 31.2666 172.539 31.7978C172.231 32.0375 171.917 32.269 171.592 32.4897C171.502 32.5469 171.412 32.6041 171.322 32.6586Z" fill="#4F2D1C"/>
<path d="M177.004 25.2964C175.684 27.8568 173.466 29.8234 170.915 31.0737C168.354 32.3294 165.459 32.7761 162.639 32.6862C159.788 32.6154 157.06 31.8935 154.346 31.3869C151.623 30.8503 148.898 30.3274 146.165 29.8807C140.725 28.911 135.204 28.1837 129.702 28.4561C126.96 28.6141 124.216 29.0444 121.685 30.0604C119.145 31.0464 116.897 32.7625 115.419 35.0505L114.955 34.759C115.599 31.7954 117.876 29.1398 120.582 27.4019C123.335 25.6995 126.401 24.6943 129.426 24.1823C135.504 23.0954 141.432 23.6512 147.087 24.5146C149.905 25.0703 152.674 25.6641 155.388 26.3587L159.393 27.5244C160.538 27.835 161.67 28.1482 162.811 28.3933C165.08 28.7883 167.374 28.9708 169.671 28.4669C171.996 28.0501 174.358 26.9225 176.507 25.0649L177.004 25.2964Z" fill="#804C36"/>
<path d="M114.945 35.233C110.829 32.2668 107.656 28.2546 104.967 24.0299C102.411 19.7371 100.152 15.0683 99.8519 9.84667C99.7073 7.31349 100.537 4.27102 102.959 2.7048C104.116 1.93396 105.441 1.53075 106.737 1.34008L110.469 0.901581C115.431 0.37043 120.42 0.00541687 125.434 -3.05176e-05C130.44 0.0462761 135.481 0.422211 140.408 1.60981C145.285 2.74293 150.196 5.02005 153.685 8.73811C157.315 12.2137 160.395 16.1632 163.876 19.6144C165.608 21.3358 167.491 22.9239 169.67 23.9236C171.836 24.9505 174.302 25.212 176.681 24.7789L176.836 25.5824C175.644 26.1571 174.327 26.5984 172.895 26.8027C171.473 26.9606 169.976 26.838 168.524 26.5139C165.592 25.8466 163.077 24.2859 160.804 22.7823C156.396 19.56 152.773 16.1605 149.197 13.4285L147.806 12.4153C147.383 12.1348 147.075 11.9631 146.682 11.7534C145.948 11.3421 145.146 10.9471 144.303 10.6066C142.598 9.92295 140.659 9.43545 138.605 9.11131C134.516 8.37315 130.009 8.04895 125.404 8.16608C120.794 8.03806 116.061 8.30222 111.263 8.59367L107.812 8.73532C107.245 8.72442 106.975 8.79255 106.972 8.69994L106.909 8.41944C106.729 8.48482 106.475 8.96418 106.366 9.6751C106.102 11.1242 106.41 13.1806 106.816 15.2726C107.225 17.3944 107.927 19.5763 108.761 21.7417C110.376 26.1462 112.479 30.4635 115.431 34.5765L114.945 35.233Z" fill="#85523D"/>
<path d="M141.366 194.5C140.981 195.167 140.019 195.167 139.634 194.5L132.273 181.75C131.888 181.083 132.369 180.25 133.139 180.25L147.861 180.25C148.631 180.25 149.112 181.083 148.727 181.75L141.366 194.5Z" stroke="#004547" stroke-width="2"/>
<path d="M141.746 182.915C141.396 183.021 141.116 183.174 140.908 183.376C140.699 183.568 140.515 183.846 140.353 184.211C141.954 184.451 143.082 184.797 143.735 185.248C144.389 185.699 144.716 186.342 144.716 187.178C144.716 187.706 144.569 188.166 144.275 188.56C143.982 188.944 143.612 189.237 143.167 189.438C142.295 189.813 141.438 190 140.595 190C138.198 190 137 189.477 137 188.43C137 187.902 137.232 187.374 137.696 186.846C137.933 187.182 138.288 187.47 138.762 187.71C139.245 187.95 139.714 188.07 140.169 188.07C140.955 188.07 141.429 187.72 141.59 187.019C140.15 186.846 139.108 186.52 138.464 186.04C137.819 185.56 137.497 184.883 137.497 184.01C137.497 183.318 137.72 182.738 138.165 182.267C138.62 181.797 139.179 181.47 139.842 181.288C140.515 181.096 141.268 181 142.101 181C142.944 181 143.636 181.163 144.176 181.49C144.725 181.806 145 182.195 145 182.656C145 183.117 144.839 183.472 144.517 183.722C144.204 183.971 143.858 184.096 143.48 184.096C143.11 184.096 142.769 183.995 142.456 183.794C142.153 183.592 141.917 183.299 141.746 182.915Z" fill="#004547"/>
</svg>
