<svg width="14" height="14" viewBox="0 0 14 14" fill="none" xmlns="http://www.w3.org/2000/svg">
<rect width="14" height="14" rx="2" fill="#DBE9FF"/>
<path d="M9.73081 3.23077H6.73087C6.45487 3.23077 6.23088 3.45445 6.23088 3.73079C6.23088 4.00714 6.45487 4.23082 6.73087 4.23082H9.52381L3.37727 10.3774C3.18194 10.5724 3.18194 10.8894 3.37727 11.0844C3.47494 11.1821 3.60293 11.2308 3.73093 11.2308C3.85893 11.2308 3.98692 11.1821 4.08459 11.0844L10.2308 4.93784V7.73096C10.2308 8.00731 10.4548 8.23098 10.7308 8.23098C11.0068 8.23098 11.2308 8.00731 11.2308 7.73096V4.73084C11.2308 3.9038 10.5578 3.23077 9.73081 3.23077Z" fill="#007CD7"/>
</svg>
