<svg width="9" height="10" viewBox="0 0 9 10" fill="none" xmlns="http://www.w3.org/2000/svg">
<path d="M3.27952 5.55851C3.27952 5.44577 3.18807 5.35443 3.07524 5.35443H2.36237C2.24967 5.35443 2.1582 5.44577 2.1582 5.55851V6.27128C2.1582 6.38417 2.24967 6.47554 2.36237 6.47554H3.07524C3.18807 6.47554 3.27952 6.38417 3.27952 6.27128V5.55851Z" fill="#3D3D3D"/>
<path d="M5.06066 5.55857C5.06066 5.44583 4.96919 5.35449 4.85658 5.35449H4.14362C4.03092 5.35449 3.93945 5.44583 3.93945 5.55857V6.27134C3.93945 6.38423 4.03092 6.4756 4.14362 6.4756H4.85658C4.96919 6.4756 5.06066 6.38423 5.06066 6.27134V5.55857Z" fill="#3D3D3D"/>
<path d="M6.842 5.55851C6.842 5.44577 6.75054 5.35443 6.63784 5.35443H5.92498C5.81215 5.35443 5.7207 5.44577 5.7207 5.55851V6.27128C5.7207 6.38417 5.81215 6.47554 5.92498 6.47554H6.63784C6.75054 6.47554 6.842 6.38417 6.842 6.27128V5.55851Z" fill="#3D3D3D"/>
<path d="M3.27952 7.3403C3.27952 7.22737 3.18807 7.13611 3.07524 7.13611H2.36237C2.24967 7.13611 2.1582 7.22737 2.1582 7.3403V8.05294C2.1582 8.16575 2.24967 8.25711 2.36237 8.25711H3.07524C3.18807 8.25711 3.27952 8.16573 3.27952 8.05294V7.3403Z" fill="#3D3D3D"/>
<path d="M5.06066 7.34017C5.06066 7.22725 4.96919 7.13599 4.85658 7.13599H4.14362C4.03092 7.13599 3.93945 7.22725 3.93945 7.34017V8.05282C3.93945 8.16563 4.03092 8.25699 4.14362 8.25699H4.85658C4.96919 8.25699 5.06066 8.16561 5.06066 8.05282V7.34017Z" fill="#3D3D3D"/>
<path d="M6.842 7.3403C6.842 7.22737 6.75054 7.13611 6.63793 7.13611H5.92498C5.81215 7.13611 5.7207 7.22737 5.7207 7.3403V8.05294C5.7207 8.16575 5.81215 8.25711 5.92498 8.25711H6.63793C6.75054 8.25711 6.842 8.16573 6.842 8.05294V7.3403Z" fill="#3D3D3D"/>
<path d="M8.11676 1.59534V2.68404C8.11676 3.17612 7.71757 3.57266 7.22556 3.57266H6.66336C6.17132 3.57266 5.76683 3.17612 5.76683 2.68404V1.59143H3.23287V2.68404C3.23287 3.17612 2.8284 3.57266 2.33643 3.57266H1.77412C1.28213 3.57266 0.882956 3.17612 0.882956 2.68404V1.59534C0.452952 1.6083 0.0996094 1.96411 0.0996094 2.40146V8.78174C0.0996094 9.2273 0.460751 9.59324 0.906316 9.59324H8.09338C8.53829 9.59324 8.90009 9.22655 8.90009 8.78174V2.40146C8.90009 1.96411 8.54677 1.6083 8.11676 1.59534ZM7.85564 8.38443C7.85564 8.57698 7.69952 8.7332 7.50689 8.7332H1.47745C1.28482 8.7332 1.1287 8.57698 1.1287 8.38443V5.08878C1.1287 4.89615 1.28481 4.73993 1.47745 4.73993H7.50687C7.6995 4.73993 7.85562 4.89615 7.85562 5.08878L7.85564 8.38443Z" fill="#3D3D3D"/>
<path d="M1.77232 2.98904H2.32841C2.4972 2.98904 2.63406 2.85239 2.63406 2.6836V0.898816C2.63406 0.730008 2.4972 0.593262 2.32841 0.593262H1.77232C1.60351 0.593262 1.46667 0.730008 1.46667 0.898816V2.6836C1.46667 2.85239 1.60351 2.98904 1.77232 2.98904Z" fill="#3D3D3D"/>
<path d="M6.65646 2.98904H7.21254C7.38122 2.98904 7.51808 2.85239 7.51808 2.6836V0.898816C7.5181 0.730008 7.38124 0.593262 7.21254 0.593262H6.65646C6.48769 0.593262 6.35083 0.730008 6.35083 0.898816V2.6836C6.35083 2.85239 6.48769 2.98904 6.65646 2.98904Z" fill="#3D3D3D"/>
</svg>
