<svg width="15" height="15" viewBox="0 0 15 15" fill="none" xmlns="http://www.w3.org/2000/svg">
<g clip-path="url(#clip0_317_277)">
<path d="M7.47375 15.005L7.03808 14.6316C6.43746 14.1287 1.19312 9.59944 1.19312 6.28643C1.19312 2.81774 4.00506 0.00579834 7.47375 0.00579834C10.9424 0.00579834 13.7544 2.81774 13.7544 6.28643C13.7544 9.59947 8.51004 14.1287 7.91191 14.6341L7.47375 15.005ZM7.47375 1.36386C4.75638 1.36693 2.55428 3.56903 2.5512 6.2864C2.5512 8.36771 5.77772 11.6926 7.47375 13.2143C9.1698 11.6919 12.3963 8.36519 12.3963 6.2864C12.3932 3.56903 10.1912 1.36696 7.47375 1.36386Z" fill="#0085C0"/>
<path d="M7.47375 8.77602C6.09879 8.77602 4.98416 7.6614 4.98416 6.28643C4.98416 4.91147 6.09879 3.79684 7.47375 3.79684C8.84871 3.79684 9.96334 4.91147 9.96334 6.28643C9.96334 7.6614 8.84874 8.77602 7.47375 8.77602ZM7.47375 5.04161C6.78627 5.04161 6.22896 5.59892 6.22896 6.28641C6.22896 6.97389 6.78627 7.5312 7.47375 7.5312C8.16123 7.5312 8.71855 6.97389 8.71855 6.28641C8.71855 5.59892 8.16126 5.04161 7.47375 5.04161Z" fill="#0085C0"/>
</g>
<defs>
<clipPath id="clip0_317_277">
<rect width="15" height="15" fill="white"/>
</clipPath>
</defs>
</svg>
